<svg width="364" height="215" viewBox="0 0 364 215" fill="none" xmlns="http://www.w3.org/2000/svg">
<mask id="path-1-outside-1_0_1" maskUnits="userSpaceOnUse" x="213" y="41" width="152" height="148" fill="black">
<rect fill="white" x="213" y="41" width="152" height="148"/>
<path d="M261.464 158.776C253.101 158.776 245.421 157.539 238.424 155.064C231.512 152.589 225.923 148.963 221.656 144.184C217.389 139.32 215.043 133.347 214.616 126.264C214.445 123.363 214.915 120.163 216.024 116.664C217.133 113.165 218.669 109.709 220.632 106.296C222.68 102.797 225.069 99.6827 227.8 96.952C230.616 94.136 233.603 92.0027 236.76 90.552C237.016 90.3813 237.4 90.2533 237.912 90.168C238.509 90.0827 238.936 90.04 239.192 90.04C239.704 90.04 239.96 90.168 239.96 90.424C239.96 90.8507 239.32 91.5333 238.04 92.472C234.456 95.288 231.512 98.5307 229.208 102.2C226.819 105.869 225.027 109.795 223.832 113.976C222.637 118.157 222.04 122.381 222.04 126.648C222.04 131.683 223.107 136.035 225.24 139.704C227.459 143.288 230.403 146.232 234.072 148.536C237.741 150.925 241.923 152.675 246.616 153.784C251.309 154.893 256.216 155.448 261.336 155.448C267.053 155.448 272.685 154.808 278.232 153.528C283.864 152.248 288.984 150.413 293.592 148.024C300.675 144.269 306.264 139.619 310.36 134.072C314.541 128.525 316.632 123.021 316.632 117.56C316.632 114.659 315.992 111.885 314.712 109.24C313.517 106.595 311.555 104.205 308.824 102.072C306.776 100.451 304.259 98.9147 301.272 97.464C298.371 96.0133 295.256 94.6053 291.928 93.24C288.685 91.8747 285.485 90.5093 282.328 89.144C279.171 87.6933 276.397 86.1573 274.008 84.536C270.595 82.232 268.077 79.7573 266.456 77.112C264.92 74.4667 264.152 71.8213 264.152 69.176C264.152 66.0187 265.048 62.9467 266.84 59.96C268.717 56.9733 271.235 54.2853 274.392 51.896C277.635 49.4213 281.261 47.5013 285.272 46.136C288.771 44.9413 292.568 44.0027 296.664 43.32C300.845 42.6373 304.941 42.296 308.952 42.296C312.28 42.296 315.437 42.552 318.424 43.064C321.496 43.4907 324.184 44.3013 326.488 45.496C329.389 46.8613 331.608 48.696 333.144 51C334.68 53.2187 335.448 55.5653 335.448 58.04C335.448 61.4533 333.912 64.44 330.84 67C329.731 67.8533 328.493 68.664 327.128 69.432C325.763 70.1147 324.141 70.712 322.264 71.224C321.923 71.3093 321.539 71.352 321.112 71.352C320.088 71.352 319.576 71.0533 319.576 70.456C319.576 70.1147 319.832 69.7733 320.344 69.432C320.941 69.0053 321.795 68.7493 322.904 68.664C325.464 68.3227 327.384 67.3413 328.664 65.72C330.029 64.0987 330.712 62.2213 330.712 60.088C330.712 57.8693 329.944 55.6933 328.408 53.56C326.957 51.3413 324.696 49.5067 321.624 48.056C318.552 46.52 314.627 45.752 309.848 45.752C307.117 45.752 304.088 46.0507 300.76 46.648C297.517 47.2453 293.976 48.2267 290.136 49.592C285.443 51.2133 281.517 53.6027 278.36 56.76C275.288 59.9173 273.752 63.288 273.752 66.872C273.752 69.0907 274.477 71.352 275.928 73.656C277.464 75.8747 279.896 78.008 283.224 80.056C286.04 81.7627 289.24 83.4693 292.824 85.176C296.408 86.7973 300.035 88.4613 303.704 90.168C307.373 91.7893 310.701 93.5387 313.688 95.416C318.381 98.3173 321.752 101.432 323.8 104.76C325.848 108.088 326.872 111.501 326.872 115C326.872 119.096 325.635 123.235 323.16 127.416C320.771 131.512 317.613 135.395 313.688 139.064C309.763 142.648 305.453 145.848 300.76 148.664C295.299 151.907 289.112 154.381 282.2 156.088C275.373 157.88 268.461 158.776 261.464 158.776ZM351.864 98.616C350.584 98.616 349.517 98.1893 348.664 97.336C347.896 96.3973 347.512 95.288 347.512 94.008C347.512 92.3867 348.152 90.9787 349.432 89.784C350.712 88.5893 352.12 87.992 353.656 87.992C355.021 87.992 356.131 88.4187 356.984 89.272C357.837 90.1253 358.264 91.1493 358.264 92.344C358.264 93.9653 357.624 95.416 356.344 96.696C355.064 97.976 353.571 98.616 351.864 98.616ZM292.344 187.832C287.907 187.832 284.792 186.936 283 185.144C281.123 183.437 280.184 181.389 280.184 179C280.184 176.696 280.824 174.392 282.104 172.088C283.299 169.613 284.963 167.48 287.096 165.688C289.229 163.981 291.576 162.531 294.136 161.336C298.488 159.288 303.523 157.624 309.24 156.344C314.872 155.064 320.291 153.656 325.496 152.12C326.179 150.925 326.904 149.688 327.672 148.408C328.355 147.128 328.995 145.891 329.592 144.696C331.299 141.283 332.835 138.211 334.2 135.48C335.565 132.664 337.016 129.592 338.552 126.264C338.296 126.264 337.997 126.179 337.656 126.008C337.4 125.837 337.272 125.581 337.272 125.24C337.272 124.899 337.357 124.557 337.528 124.216L344.184 109.368C344.269 109.197 344.355 108.984 344.44 108.728C344.525 108.387 344.568 108.045 344.568 107.704C344.568 106.851 344.355 106.083 343.928 105.4C343.501 104.717 343.203 104.248 343.032 103.992L350.072 103.736C351.352 103.651 352.248 103.821 352.76 104.248C353.357 104.589 353.656 105.016 353.656 105.528C353.656 106.04 353.357 106.979 352.76 108.344L342.52 132.408C341.325 135.224 340.045 138.04 338.68 140.856C337.315 143.672 335.907 146.531 334.456 149.432C337.016 148.408 339.363 147.427 341.496 146.488C343.629 145.464 345.677 144.184 347.64 142.648C349.603 141.027 351.565 138.808 353.528 135.992C355.235 133.517 356.771 130.915 358.136 128.184C359.501 125.453 360.483 123.533 361.08 122.424C361.421 121.741 361.72 121.315 361.976 121.144C362.317 120.973 362.531 120.888 362.616 120.888C363.128 120.888 363.384 121.187 363.384 121.784C363.384 122.211 363.213 122.723 362.872 123.32C360.739 127.843 358.776 131.683 356.984 134.84C355.192 137.912 353.272 140.557 351.224 142.776C349.261 144.909 346.787 146.787 343.8 148.408C340.813 150.115 337.016 151.821 332.408 153.528C330.36 157.197 328.013 160.995 325.368 164.92C322.723 168.931 319.736 172.643 316.408 176.056C313.08 179.555 309.453 182.371 305.528 184.504C301.517 186.723 297.123 187.832 292.344 187.832ZM289.272 185.272C292.088 185.272 295.032 184.419 298.104 182.712C301.091 181.005 303.992 178.829 306.808 176.184C309.624 173.624 312.227 170.979 314.616 168.248C316.92 165.517 318.797 163.128 320.248 161.08C320.76 160.397 321.229 159.629 321.656 158.776C322.083 157.923 322.509 157.069 322.936 156.216C318.84 157.325 314.317 158.52 309.368 159.8C304.419 161.165 300.067 162.659 296.312 164.28C292.216 165.987 289.016 168.376 286.712 171.448C284.408 174.605 283.256 177.421 283.256 179.896C283.256 181.517 283.768 182.797 284.792 183.736C285.731 184.76 287.224 185.272 289.272 185.272Z"/>
</mask>
<path d="M261.464 158.776C253.101 158.776 245.421 157.539 238.424 155.064C231.512 152.589 225.923 148.963 221.656 144.184C217.389 139.32 215.043 133.347 214.616 126.264C214.445 123.363 214.915 120.163 216.024 116.664C217.133 113.165 218.669 109.709 220.632 106.296C222.68 102.797 225.069 99.6827 227.8 96.952C230.616 94.136 233.603 92.0027 236.76 90.552C237.016 90.3813 237.4 90.2533 237.912 90.168C238.509 90.0827 238.936 90.04 239.192 90.04C239.704 90.04 239.96 90.168 239.96 90.424C239.96 90.8507 239.32 91.5333 238.04 92.472C234.456 95.288 231.512 98.5307 229.208 102.2C226.819 105.869 225.027 109.795 223.832 113.976C222.637 118.157 222.04 122.381 222.04 126.648C222.04 131.683 223.107 136.035 225.24 139.704C227.459 143.288 230.403 146.232 234.072 148.536C237.741 150.925 241.923 152.675 246.616 153.784C251.309 154.893 256.216 155.448 261.336 155.448C267.053 155.448 272.685 154.808 278.232 153.528C283.864 152.248 288.984 150.413 293.592 148.024C300.675 144.269 306.264 139.619 310.36 134.072C314.541 128.525 316.632 123.021 316.632 117.56C316.632 114.659 315.992 111.885 314.712 109.24C313.517 106.595 311.555 104.205 308.824 102.072C306.776 100.451 304.259 98.9147 301.272 97.464C298.371 96.0133 295.256 94.6053 291.928 93.24C288.685 91.8747 285.485 90.5093 282.328 89.144C279.171 87.6933 276.397 86.1573 274.008 84.536C270.595 82.232 268.077 79.7573 266.456 77.112C264.92 74.4667 264.152 71.8213 264.152 69.176C264.152 66.0187 265.048 62.9467 266.84 59.96C268.717 56.9733 271.235 54.2853 274.392 51.896C277.635 49.4213 281.261 47.5013 285.272 46.136C288.771 44.9413 292.568 44.0027 296.664 43.32C300.845 42.6373 304.941 42.296 308.952 42.296C312.28 42.296 315.437 42.552 318.424 43.064C321.496 43.4907 324.184 44.3013 326.488 45.496C329.389 46.8613 331.608 48.696 333.144 51C334.68 53.2187 335.448 55.5653 335.448 58.04C335.448 61.4533 333.912 64.44 330.84 67C329.731 67.8533 328.493 68.664 327.128 69.432C325.763 70.1147 324.141 70.712 322.264 71.224C321.923 71.3093 321.539 71.352 321.112 71.352C320.088 71.352 319.576 71.0533 319.576 70.456C319.576 70.1147 319.832 69.7733 320.344 69.432C320.941 69.0053 321.795 68.7493 322.904 68.664C325.464 68.3227 327.384 67.3413 328.664 65.72C330.029 64.0987 330.712 62.2213 330.712 60.088C330.712 57.8693 329.944 55.6933 328.408 53.56C326.957 51.3413 324.696 49.5067 321.624 48.056C318.552 46.52 314.627 45.752 309.848 45.752C307.117 45.752 304.088 46.0507 300.76 46.648C297.517 47.2453 293.976 48.2267 290.136 49.592C285.443 51.2133 281.517 53.6027 278.36 56.76C275.288 59.9173 273.752 63.288 273.752 66.872C273.752 69.0907 274.477 71.352 275.928 73.656C277.464 75.8747 279.896 78.008 283.224 80.056C286.04 81.7627 289.24 83.4693 292.824 85.176C296.408 86.7973 300.035 88.4613 303.704 90.168C307.373 91.7893 310.701 93.5387 313.688 95.416C318.381 98.3173 321.752 101.432 323.8 104.76C325.848 108.088 326.872 111.501 326.872 115C326.872 119.096 325.635 123.235 323.16 127.416C320.771 131.512 317.613 135.395 313.688 139.064C309.763 142.648 305.453 145.848 300.76 148.664C295.299 151.907 289.112 154.381 282.2 156.088C275.373 157.88 268.461 158.776 261.464 158.776ZM351.864 98.616C350.584 98.616 349.517 98.1893 348.664 97.336C347.896 96.3973 347.512 95.288 347.512 94.008C347.512 92.3867 348.152 90.9787 349.432 89.784C350.712 88.5893 352.12 87.992 353.656 87.992C355.021 87.992 356.131 88.4187 356.984 89.272C357.837 90.1253 358.264 91.1493 358.264 92.344C358.264 93.9653 357.624 95.416 356.344 96.696C355.064 97.976 353.571 98.616 351.864 98.616ZM292.344 187.832C287.907 187.832 284.792 186.936 283 185.144C281.123 183.437 280.184 181.389 280.184 179C280.184 176.696 280.824 174.392 282.104 172.088C283.299 169.613 284.963 167.48 287.096 165.688C289.229 163.981 291.576 162.531 294.136 161.336C298.488 159.288 303.523 157.624 309.24 156.344C314.872 155.064 320.291 153.656 325.496 152.12C326.179 150.925 326.904 149.688 327.672 148.408C328.355 147.128 328.995 145.891 329.592 144.696C331.299 141.283 332.835 138.211 334.2 135.48C335.565 132.664 337.016 129.592 338.552 126.264C338.296 126.264 337.997 126.179 337.656 126.008C337.4 125.837 337.272 125.581 337.272 125.24C337.272 124.899 337.357 124.557 337.528 124.216L344.184 109.368C344.269 109.197 344.355 108.984 344.44 108.728C344.525 108.387 344.568 108.045 344.568 107.704C344.568 106.851 344.355 106.083 343.928 105.4C343.501 104.717 343.203 104.248 343.032 103.992L350.072 103.736C351.352 103.651 352.248 103.821 352.76 104.248C353.357 104.589 353.656 105.016 353.656 105.528C353.656 106.04 353.357 106.979 352.76 108.344L342.52 132.408C341.325 135.224 340.045 138.04 338.68 140.856C337.315 143.672 335.907 146.531 334.456 149.432C337.016 148.408 339.363 147.427 341.496 146.488C343.629 145.464 345.677 144.184 347.64 142.648C349.603 141.027 351.565 138.808 353.528 135.992C355.235 133.517 356.771 130.915 358.136 128.184C359.501 125.453 360.483 123.533 361.08 122.424C361.421 121.741 361.72 121.315 361.976 121.144C362.317 120.973 362.531 120.888 362.616 120.888C363.128 120.888 363.384 121.187 363.384 121.784C363.384 122.211 363.213 122.723 362.872 123.32C360.739 127.843 358.776 131.683 356.984 134.84C355.192 137.912 353.272 140.557 351.224 142.776C349.261 144.909 346.787 146.787 343.8 148.408C340.813 150.115 337.016 151.821 332.408 153.528C330.36 157.197 328.013 160.995 325.368 164.92C322.723 168.931 319.736 172.643 316.408 176.056C313.08 179.555 309.453 182.371 305.528 184.504C301.517 186.723 297.123 187.832 292.344 187.832ZM289.272 185.272C292.088 185.272 295.032 184.419 298.104 182.712C301.091 181.005 303.992 178.829 306.808 176.184C309.624 173.624 312.227 170.979 314.616 168.248C316.92 165.517 318.797 163.128 320.248 161.08C320.76 160.397 321.229 159.629 321.656 158.776C322.083 157.923 322.509 157.069 322.936 156.216C318.84 157.325 314.317 158.52 309.368 159.8C304.419 161.165 300.067 162.659 296.312 164.28C292.216 165.987 289.016 168.376 286.712 171.448C284.408 174.605 283.256 177.421 283.256 179.896C283.256 181.517 283.768 182.797 284.792 183.736C285.731 184.76 287.224 185.272 289.272 185.272Z" fill="black"/>
<path d="M238.424 155.064L238.087 156.005L238.091 156.007L238.424 155.064ZM221.656 144.184L220.904 144.843L220.91 144.85L221.656 144.184ZM214.616 126.264L213.618 126.323L213.618 126.324L214.616 126.264ZM216.024 116.664L215.071 116.362L216.024 116.664ZM220.632 106.296L219.769 105.791L219.765 105.798L220.632 106.296ZM227.8 96.952L227.093 96.2449L227.093 96.2449L227.8 96.952ZM236.76 90.552L237.178 91.4607L237.249 91.4278L237.315 91.384L236.76 90.552ZM237.912 90.168L237.771 89.178L237.759 89.1797L237.748 89.1816L237.912 90.168ZM238.04 92.472L237.449 91.6656L237.435 91.6754L237.422 91.6857L238.04 92.472ZM229.208 102.2L230.046 102.746L230.051 102.739L230.055 102.732L229.208 102.2ZM223.832 113.976L222.87 113.701L223.832 113.976ZM225.24 139.704L224.375 140.207L224.382 140.219L224.39 140.23L225.24 139.704ZM234.072 148.536L234.618 147.698L234.611 147.693L234.604 147.689L234.072 148.536ZM246.616 153.784L246.386 154.757L246.386 154.757L246.616 153.784ZM278.232 153.528L278.01 152.553L278.007 152.554L278.232 153.528ZM293.592 148.024L294.052 148.912L294.06 148.908L293.592 148.024ZM310.36 134.072L309.561 133.47L309.556 133.478L310.36 134.072ZM314.712 109.24L313.801 109.652L313.806 109.664L313.812 109.676L314.712 109.24ZM308.824 102.072L308.203 102.856L308.208 102.86L308.824 102.072ZM301.272 97.464L300.825 98.3585L300.835 98.3635L301.272 97.464ZM291.928 93.24L291.54 94.1617L291.548 94.1652L291.928 93.24ZM282.328 89.144L281.911 90.0527L281.921 90.0574L281.931 90.0619L282.328 89.144ZM274.008 84.536L274.57 83.7085L274.567 83.7071L274.008 84.536ZM266.456 77.112L265.591 77.6141L265.597 77.6244L265.603 77.6346L266.456 77.112ZM266.84 59.96L265.993 59.4278L265.988 59.4366L265.983 59.4455L266.84 59.96ZM274.392 51.896L274.995 52.6934L274.999 52.6909L274.392 51.896ZM285.272 46.136L285.594 47.0826L285.595 47.0823L285.272 46.136ZM296.664 43.32L296.503 42.3331L296.5 42.3336L296.664 43.32ZM318.424 43.064L318.255 44.0496L318.271 44.0523L318.286 44.0545L318.424 43.064ZM326.488 45.496L326.028 46.3837L326.045 46.3926L326.062 46.4008L326.488 45.496ZM333.144 51L332.312 51.5547L332.317 51.562L332.322 51.5692L333.144 51ZM330.84 67L331.45 67.7926L331.465 67.7807L331.48 67.7682L330.84 67ZM327.128 69.432L327.575 70.3264L327.597 70.3155L327.618 70.3036L327.128 69.432ZM322.264 71.224L322.507 72.1941L322.517 72.1916L322.527 72.1888L322.264 71.224ZM320.344 69.432L320.899 70.2641L320.912 70.2551L320.925 70.2457L320.344 69.432ZM322.904 68.664L322.981 69.661L323.009 69.6589L323.036 69.6552L322.904 68.664ZM328.664 65.72L327.899 65.0759L327.889 65.0879L327.879 65.1003L328.664 65.72ZM328.408 53.56L327.571 54.1072L327.583 54.1261L327.596 54.1443L328.408 53.56ZM321.624 48.056L321.177 48.9504L321.187 48.9554L321.197 48.9602L321.624 48.056ZM300.76 46.648L300.583 45.6637L300.579 45.6645L300.76 46.648ZM290.136 49.592L290.463 50.5372L290.471 50.5342L290.136 49.592ZM278.36 56.76L277.653 56.0528L277.643 56.0626L278.36 56.76ZM275.928 73.656L275.082 74.1888L275.093 74.2073L275.106 74.2252L275.928 73.656ZM283.224 80.056L282.7 80.9077L282.706 80.9112L283.224 80.056ZM292.824 85.176L292.394 86.0789L292.403 86.0831L292.412 86.0871L292.824 85.176ZM303.704 90.168L303.282 91.0747L303.291 91.0788L303.3 91.0827L303.704 90.168ZM313.688 95.416L313.156 96.2627L313.162 96.2666L313.688 95.416ZM323.16 127.416L322.299 126.907L322.296 126.912L323.16 127.416ZM313.688 139.064L314.362 139.803L314.371 139.795L313.688 139.064ZM300.76 148.664L301.271 149.524L301.274 149.521L300.76 148.664ZM282.2 156.088L281.96 155.117L281.953 155.119L281.946 155.121L282.2 156.088ZM261.464 157.776C253.201 157.776 245.635 156.554 238.757 154.121L238.091 156.007C245.208 158.524 253.002 159.776 261.464 159.776V157.776ZM238.761 154.123C231.983 151.696 226.542 148.155 222.402 143.518L220.91 144.85C225.303 149.77 231.041 153.483 238.087 156.005L238.761 154.123ZM222.408 143.525C218.302 138.844 216.029 133.088 215.614 126.204L213.618 126.324C214.056 133.606 216.477 139.796 220.904 144.843L222.408 143.525ZM215.614 126.205C215.452 123.453 215.896 120.378 216.977 116.966L215.071 116.362C213.934 119.948 213.438 123.272 213.618 126.323L215.614 126.205ZM216.977 116.966C218.063 113.541 219.569 110.15 221.499 106.794L219.765 105.798C217.769 109.269 216.203 112.79 215.071 116.362L216.977 116.966ZM221.495 106.801C223.502 103.373 225.84 100.326 228.507 97.6591L227.093 96.2449C224.299 99.0389 221.858 102.222 219.769 105.791L221.495 106.801ZM228.507 97.6591C231.251 94.9148 234.142 92.8552 237.178 91.4607L236.343 89.6433C233.063 91.1501 229.981 93.3572 227.093 96.2449L228.507 97.6591ZM237.315 91.384C237.399 91.328 237.621 91.2303 238.076 91.1544L237.748 89.1816C237.179 89.2763 236.633 89.4346 236.205 89.7199L237.315 91.384ZM238.053 91.1579C238.65 91.0728 239.014 91.04 239.192 91.04V89.04C238.858 89.04 238.369 89.0925 237.771 89.178L238.053 91.1579ZM239.192 91.04C239.281 91.04 239.336 91.0458 239.364 91.0504C239.394 91.0555 239.372 91.0558 239.321 91.0304C239.266 91.0031 239.165 90.9384 239.08 90.8107C238.991 90.6767 238.96 90.535 238.96 90.424H240.96C240.96 90.185 240.897 89.9313 240.744 89.7013C240.595 89.4776 240.398 89.3329 240.215 89.2416C239.878 89.0731 239.499 89.04 239.192 89.04V91.04ZM238.96 90.424C238.96 90.2887 239.007 90.2351 238.974 90.2923C238.945 90.3417 238.88 90.4342 238.75 90.5721C238.492 90.848 238.068 91.2113 237.449 91.6656L238.631 93.2784C239.292 92.794 239.828 92.3466 240.21 91.9399C240.4 91.7365 240.575 91.5196 240.706 91.2917C240.833 91.0715 240.96 90.7726 240.96 90.424H238.96ZM237.422 91.6857C233.752 94.569 230.729 97.8965 228.361 101.668L230.055 102.732C232.295 99.1648 235.16 96.007 238.658 93.2583L237.422 91.6857ZM228.37 101.654C225.927 105.407 224.093 109.423 222.87 113.701L224.794 114.251C225.961 110.166 227.711 106.332 230.046 102.746L228.37 101.654ZM222.87 113.701C221.651 117.97 221.04 122.287 221.04 126.648H223.04C223.04 122.476 223.624 118.344 224.794 114.251L222.87 113.701ZM221.04 126.648C221.04 131.826 222.138 136.358 224.375 140.207L226.105 139.201C224.075 135.711 223.04 131.539 223.04 126.648H221.04ZM224.39 140.23C226.691 143.948 229.745 147 233.54 149.383L234.604 147.689C231.06 145.464 228.226 142.628 226.09 139.178L224.39 140.23ZM233.526 149.374C237.302 151.832 241.592 153.624 246.386 154.757L246.846 152.811C242.254 151.725 238.181 150.018 234.618 147.698L233.526 149.374ZM246.386 154.757C251.159 155.885 256.143 156.448 261.336 156.448V154.448C256.289 154.448 251.459 153.901 246.846 152.811L246.386 154.757ZM261.336 156.448C267.129 156.448 272.836 155.799 278.457 154.502L278.007 152.554C272.535 153.817 266.978 154.448 261.336 154.448V156.448ZM278.454 154.503C284.159 153.206 289.361 151.344 294.052 148.912L293.132 147.136C288.607 149.482 283.569 151.29 278.01 152.553L278.454 154.503ZM294.06 148.908C301.254 145.094 306.966 140.351 311.164 134.666L309.556 133.478C305.562 138.886 300.095 143.445 293.124 147.14L294.06 148.908ZM311.159 134.674C315.435 129.001 317.632 123.291 317.632 117.56H315.632C315.632 122.751 313.648 128.049 309.561 133.47L311.159 134.674ZM317.632 117.56C317.632 114.506 316.957 111.584 315.612 108.804L313.812 109.676C315.027 112.187 315.632 114.812 315.632 117.56H317.632ZM315.623 108.828C314.35 106.009 312.273 103.498 309.44 101.284L308.208 102.86C310.836 104.913 312.684 107.18 313.801 109.652L315.623 108.828ZM309.445 101.288C307.327 99.6114 304.744 98.0388 301.709 96.5645L300.835 98.3635C303.773 99.7906 306.225 101.29 308.203 102.856L309.445 101.288ZM301.719 96.5696C298.793 95.1067 295.656 93.6886 292.308 92.3148L291.548 94.1652C294.856 95.5221 297.948 96.92 300.825 98.3584L301.719 96.5696ZM292.316 92.3184C289.076 90.9542 285.879 89.5902 282.725 88.2261L281.931 90.0619C285.091 91.4285 288.294 92.7951 291.54 94.1616L292.316 92.3184ZM282.746 88.2353C279.629 86.8032 276.905 85.2934 274.57 83.7085L273.447 85.3635C275.89 87.0213 278.713 88.5834 281.911 90.0527L282.746 88.2353ZM274.567 83.7071C271.236 81.4582 268.835 79.0799 267.309 76.5894L265.603 77.6346C267.32 80.4347 269.954 83.0058 273.449 85.3648L274.567 83.7071ZM267.321 76.6099C265.859 74.0929 265.152 71.619 265.152 69.176H263.152C263.152 72.0237 263.981 74.8404 265.591 77.6141L267.321 76.6099ZM265.152 69.176C265.152 66.2182 265.989 63.3223 267.697 60.4745L265.983 59.4455C264.107 62.5711 263.152 65.8191 263.152 69.176H265.152ZM267.687 60.4922C269.492 57.6196 271.923 55.0186 274.995 52.6934L273.789 51.0986C270.547 53.552 267.942 56.327 265.993 59.4278L267.687 60.4922ZM274.999 52.6909C278.152 50.2844 281.682 48.4145 285.594 47.0826L284.95 45.1893C280.841 46.5882 277.117 48.5583 273.785 51.101L274.999 52.6909ZM285.595 47.0823C289.036 45.9073 292.78 44.9811 296.828 44.3064L296.5 42.3336C292.356 43.0242 288.505 43.9753 284.949 45.1896L285.595 47.0823ZM296.825 44.3069C300.956 43.6325 304.998 43.296 308.952 43.296V41.296C304.884 41.296 300.735 41.6422 296.503 42.3331L296.825 44.3069ZM308.952 43.296C312.229 43.296 315.329 43.5481 318.255 44.0496L318.593 42.0784C315.545 41.5559 312.331 41.296 308.952 41.296V43.296ZM318.286 44.0545C321.267 44.4685 323.842 45.2505 326.028 46.3837L326.948 44.6082C324.526 43.3521 321.725 42.5128 318.562 42.0735L318.286 44.0545ZM326.062 46.4008C328.825 47.7011 330.892 49.4248 332.312 51.5547L333.976 50.4453C332.324 47.9672 329.953 46.0216 326.914 44.5912L326.062 46.4008ZM332.322 51.5692C333.753 53.6365 334.448 55.7872 334.448 58.04H336.448C336.448 55.3435 335.607 52.8008 333.966 50.4308L332.322 51.5692ZM334.448 58.04C334.448 61.1043 333.087 63.8255 330.2 66.2318L331.48 67.7682C334.737 65.0545 336.448 61.8024 336.448 58.04H334.448ZM330.23 66.2074C329.163 67.0284 327.966 67.8131 326.638 68.5604L327.618 70.3036C329.02 69.5149 330.298 68.6783 331.45 67.7926L330.23 66.2074ZM326.681 68.5376C325.388 69.1841 323.831 69.7601 322.001 70.2592L322.527 72.1888C324.452 71.6639 326.138 71.0453 327.575 70.3264L326.681 68.5376ZM322.021 70.2539C321.774 70.3157 321.474 70.352 321.112 70.352V72.352C321.604 72.352 322.071 72.303 322.507 72.1941L322.021 70.2539ZM321.112 70.352C320.902 70.352 320.744 70.3364 320.631 70.3144C320.516 70.292 320.469 70.2675 320.464 70.2642C320.463 70.2635 320.473 70.2694 320.489 70.285C320.506 70.3011 320.524 70.3235 320.54 70.3519C320.575 70.4133 320.576 70.459 320.576 70.456H318.576C318.576 71.1069 318.89 71.6615 319.456 71.9918C319.939 72.2737 320.536 72.352 321.112 72.352V70.352ZM320.576 70.456C320.576 70.5508 320.537 70.5855 320.568 70.544C320.605 70.4945 320.699 70.3972 320.899 70.2641L319.789 68.5999C319.217 68.9815 318.576 69.5838 318.576 70.456H320.576ZM320.925 70.2457C321.317 69.9662 321.966 69.7391 322.981 69.661L322.827 67.6669C321.623 67.7596 320.566 68.0445 319.763 68.6183L320.925 70.2457ZM323.036 69.6552C325.786 69.2886 327.97 68.2129 329.449 66.3396L327.879 65.1003C326.798 66.4697 325.142 67.3567 322.772 67.6728L323.036 69.6552ZM329.429 66.3641C330.947 64.5612 331.712 62.4554 331.712 60.088H329.712C329.712 61.9873 329.112 63.6361 327.899 65.0759L329.429 66.3641ZM331.712 60.088C331.712 57.623 330.855 55.2469 329.22 52.9757L327.596 54.1443C329.033 56.1398 329.712 58.1156 329.712 60.088H331.712ZM329.245 53.0127C327.668 50.6016 325.244 48.6594 322.051 47.1517L321.197 48.9602C324.148 50.3539 326.246 52.0811 327.571 54.1072L329.245 53.0127ZM322.071 47.1616C318.817 45.5344 314.725 44.752 309.848 44.752V46.752C314.529 46.752 318.287 47.5056 321.177 48.9504L322.071 47.1616ZM309.848 44.752C307.046 44.752 303.956 45.0583 300.583 45.6637L300.937 47.6323C304.22 47.043 307.189 46.752 309.848 46.752V44.752ZM300.579 45.6645C297.273 46.2734 293.68 47.2706 289.801 48.6498L290.471 50.5342C294.272 49.1827 297.761 48.2172 300.941 47.6314L300.579 45.6645ZM289.809 48.6468C284.989 50.312 280.929 52.7769 277.653 56.0529L279.067 57.4671C282.106 54.4285 285.896 52.1146 290.463 50.5372L289.809 48.6468ZM277.643 56.0626C274.434 59.3614 272.752 62.9706 272.752 66.872H274.752C274.752 63.6054 276.142 60.4732 279.077 57.4573L277.643 56.0626ZM272.752 66.872C272.752 69.318 273.554 71.7616 275.082 74.1888L276.774 73.1232C275.401 70.9424 274.752 68.8634 274.752 66.872H272.752ZM275.106 74.2252C276.748 76.5967 279.303 78.817 282.7 80.9077L283.748 79.2043C280.489 77.1989 278.18 75.1526 276.75 73.0868L275.106 74.2252ZM282.706 80.9112C285.555 82.6383 288.786 84.3606 292.394 86.0789L293.254 84.2731C289.694 82.5781 286.525 80.887 283.742 79.2008L282.706 80.9112ZM292.412 86.0871C295.993 87.707 299.616 89.3695 303.282 91.0747L304.126 89.2613C300.453 87.5532 296.823 85.8877 293.236 84.2649L292.412 86.0871ZM303.3 91.0827C306.931 92.6871 310.215 94.4143 313.156 96.2626L314.22 94.5694C311.187 92.6631 307.816 90.8916 304.108 89.2533L303.3 91.0827ZM313.162 96.2666C317.774 99.1176 321.009 102.132 322.948 105.284L324.652 104.236C322.495 100.732 318.989 97.5171 314.214 94.5654L313.162 96.2666ZM322.948 105.284C324.911 108.473 325.872 111.707 325.872 115H327.872C327.872 111.295 326.785 107.703 324.652 104.236L322.948 105.284ZM325.872 115C325.872 118.886 324.7 122.851 322.299 126.907L324.021 127.925C326.569 123.619 327.872 119.306 327.872 115H325.872ZM322.296 126.912C319.962 130.914 316.869 134.722 313.005 138.333L314.371 139.795C318.358 136.068 321.579 132.11 324.024 127.92L322.296 126.912ZM313.014 138.326C309.139 141.863 304.883 145.024 300.246 147.807L301.274 149.521C306.023 146.672 310.386 143.433 314.362 139.802L313.014 138.326ZM300.249 147.804C294.882 150.991 288.788 153.431 281.96 155.117L282.44 157.059C289.436 155.331 295.715 152.822 301.271 149.524L300.249 147.804ZM281.946 155.121C275.202 156.891 268.375 157.776 261.464 157.776V159.776C268.548 159.776 275.545 158.869 282.454 157.055L281.946 155.121ZM348.664 97.336L347.89 97.9692L347.922 98.0078L347.957 98.0431L348.664 97.336ZM356.984 89.272L357.691 88.5649L357.691 88.5649L356.984 89.272ZM356.344 96.696L357.051 97.4031L357.051 97.4031L356.344 96.696ZM283 185.144L283.707 184.437L283.69 184.42L283.673 184.404L283 185.144ZM282.104 172.088L282.978 172.574L282.992 172.549L283.005 172.523L282.104 172.088ZM287.096 165.688L286.471 164.907L286.462 164.915L286.453 164.922L287.096 165.688ZM294.136 161.336L294.559 162.242L294.562 162.241L294.136 161.336ZM309.24 156.344L309.458 157.32L309.462 157.319L309.24 156.344ZM325.496 152.12L325.779 153.079L326.165 152.965L326.364 152.616L325.496 152.12ZM327.672 148.408L328.529 148.922L328.542 148.901L328.554 148.879L327.672 148.408ZM329.592 144.696L328.698 144.249L328.698 144.249L329.592 144.696ZM334.2 135.48L335.094 135.927L335.1 135.916L334.2 135.48ZM338.552 126.264L339.46 126.683L340.115 125.264H338.552V126.264ZM337.656 126.008L337.101 126.84L337.153 126.875L337.209 126.902L337.656 126.008ZM337.528 124.216L338.422 124.663L338.432 124.644L338.441 124.625L337.528 124.216ZM344.184 109.368L343.29 108.921L343.28 108.94L343.271 108.959L344.184 109.368ZM344.44 108.728L345.389 109.044L345.401 109.008L345.41 108.971L344.44 108.728ZM343.928 105.4L344.776 104.87L344.776 104.87L343.928 105.4ZM343.032 103.992L342.996 102.993L341.207 103.058L342.2 104.547L343.032 103.992ZM350.072 103.736L350.108 104.735L350.123 104.735L350.139 104.734L350.072 103.736ZM352.76 104.248L352.12 105.016L352.187 105.073L352.264 105.116L352.76 104.248ZM352.76 108.344L351.844 107.943L351.84 107.952L352.76 108.344ZM342.52 132.408L341.6 132.016L341.599 132.017L342.52 132.408ZM338.68 140.856L337.78 140.42L337.78 140.42L338.68 140.856ZM334.456 149.432L333.562 148.985L332.385 151.337L334.827 150.36L334.456 149.432ZM341.496 146.488L341.899 147.403L341.914 147.397L341.929 147.39L341.496 146.488ZM347.64 142.648L348.256 143.436L348.267 143.427L348.277 143.419L347.64 142.648ZM353.528 135.992L354.348 136.564L354.351 136.56L353.528 135.992ZM358.136 128.184L359.03 128.631L359.03 128.631L358.136 128.184ZM361.08 122.424L361.96 122.898L361.968 122.885L361.974 122.871L361.08 122.424ZM361.976 121.144L361.529 120.25L361.473 120.277L361.421 120.312L361.976 121.144ZM362.872 123.32L362.004 122.824L361.984 122.858L361.968 122.893L362.872 123.32ZM356.984 134.84L357.848 135.344L357.854 135.334L356.984 134.84ZM351.224 142.776L350.489 142.098L350.488 142.099L351.224 142.776ZM343.8 148.408L343.323 147.529L343.313 147.534L343.304 147.54L343.8 148.408ZM332.408 153.528L332.061 152.59L331.715 152.718L331.535 153.041L332.408 153.528ZM325.368 164.92L324.539 164.361L324.533 164.369L325.368 164.92ZM316.408 176.056L315.692 175.358L315.683 175.367L316.408 176.056ZM305.528 184.504L305.05 183.625L305.044 183.629L305.528 184.504ZM298.104 182.712L298.59 183.586L298.6 183.58L298.104 182.712ZM306.808 176.184L306.135 175.444L306.129 175.45L306.123 175.455L306.808 176.184ZM314.616 168.248L315.369 168.907L315.374 168.9L315.38 168.893L314.616 168.248ZM320.248 161.08L319.448 160.48L319.44 160.491L319.432 160.502L320.248 161.08ZM321.656 158.776L320.762 158.329L320.762 158.329L321.656 158.776ZM322.936 156.216L323.83 156.663L324.828 154.667L322.675 155.251L322.936 156.216ZM309.368 159.8L309.118 158.832L309.11 158.834L309.102 158.836L309.368 159.8ZM296.312 164.28L296.697 165.203L296.708 165.198L296.312 164.28ZM286.712 171.448L285.912 170.848L285.904 170.859L286.712 171.448ZM284.792 183.736L285.529 183.06L285.5 183.028L285.468 182.999L284.792 183.736ZM351.864 97.616C350.831 97.616 350.025 97.2824 349.371 96.6289L347.957 98.0431C349.01 99.0962 350.337 99.616 351.864 99.616V97.616ZM349.438 96.7028C348.825 95.9532 348.512 95.071 348.512 94.008H346.512C346.512 95.505 346.967 96.8415 347.89 97.9692L349.438 96.7028ZM348.512 94.008C348.512 92.6876 349.019 91.5375 350.114 90.5151L348.75 89.0529C347.285 90.4199 346.512 92.0857 346.512 94.008H348.512ZM350.114 90.5151C351.237 89.4672 352.409 88.992 353.656 88.992V86.992C351.831 86.992 350.187 87.7115 348.75 89.0529L350.114 90.5151ZM353.656 88.992C354.794 88.992 355.636 89.3385 356.277 89.9791L357.691 88.5649C356.625 87.4988 355.249 86.992 353.656 86.992V88.992ZM356.277 89.9791C356.945 90.647 357.264 91.4176 357.264 92.344H359.264C359.264 90.8811 358.73 89.6036 357.691 88.5649L356.277 89.9791ZM357.264 92.344C357.264 93.6681 356.753 94.8725 355.637 95.9889L357.051 97.4031C358.495 95.9595 359.264 94.2625 359.264 92.344H357.264ZM355.637 95.9889C354.532 97.094 353.288 97.616 351.864 97.616V99.616C353.853 99.616 355.596 98.858 357.051 97.4031L355.637 95.9889ZM292.344 186.832C287.988 186.832 285.213 185.942 283.707 184.437L282.293 185.851C284.371 187.93 287.826 188.832 292.344 188.832V186.832ZM283.673 184.404C281.989 182.874 281.184 181.089 281.184 179H279.184C279.184 181.69 280.256 184.001 282.327 185.884L283.673 184.404ZM281.184 179C281.184 176.889 281.769 174.751 282.978 172.574L281.23 171.602C279.879 174.033 279.184 176.503 279.184 179H281.184ZM283.005 172.523C284.137 170.177 285.713 168.156 287.739 166.454L286.453 164.922C284.213 166.804 282.46 169.05 281.203 171.653L283.005 172.523ZM287.721 166.469C289.79 164.814 292.068 163.404 294.559 162.242L293.713 160.43C291.084 161.657 288.669 163.149 286.471 164.907L287.721 166.469ZM294.562 162.241C298.835 160.23 303.798 158.587 309.458 157.32L309.022 155.368C303.248 156.661 298.141 158.346 293.71 160.431L294.562 162.241ZM309.462 157.319C315.113 156.035 320.552 154.621 325.779 153.079L325.213 151.161C320.029 152.691 314.631 154.093 309.018 155.369L309.462 157.319ZM326.364 152.616C327.043 151.428 327.765 150.197 328.529 148.922L326.815 147.894C326.043 149.179 325.314 150.423 324.628 151.624L326.364 152.616ZM328.554 148.879C329.241 147.592 329.885 146.346 330.486 145.143L328.698 144.249C328.104 145.435 327.469 146.664 326.79 147.937L328.554 148.879ZM330.486 145.143C332.193 141.73 333.729 138.658 335.094 135.927L333.306 135.033C331.94 137.763 330.404 140.835 328.698 144.249L330.486 145.143ZM335.1 135.916C336.468 133.094 337.922 130.016 339.46 126.683L337.644 125.845C336.11 129.168 334.662 132.234 333.3 135.044L335.1 135.916ZM338.552 125.264C338.509 125.264 338.368 125.246 338.103 125.114L337.209 126.902C337.626 127.111 338.083 127.264 338.552 127.264V125.264ZM338.211 125.176C338.211 125.176 338.22 125.182 338.231 125.195C338.243 125.208 338.254 125.224 338.262 125.241C338.28 125.276 338.272 125.285 338.272 125.24H336.272C336.272 125.873 336.533 126.461 337.101 126.84L338.211 125.176ZM338.272 125.24C338.272 125.071 338.313 124.882 338.422 124.663L336.634 123.769C336.402 124.232 336.272 124.726 336.272 125.24H338.272ZM338.441 124.625L345.097 109.777L343.271 108.959L336.615 123.807L338.441 124.625ZM345.078 109.815C345.192 109.589 345.294 109.328 345.389 109.044L343.491 108.412C343.415 108.64 343.347 108.806 343.29 108.921L345.078 109.815ZM345.41 108.971C345.515 108.552 345.568 108.13 345.568 107.704H343.568C343.568 107.961 343.536 108.221 343.47 108.485L345.41 108.971ZM345.568 107.704C345.568 106.675 345.308 105.721 344.776 104.87L343.08 105.93C343.401 106.444 343.568 107.026 343.568 107.704H345.568ZM344.776 104.87C344.35 104.188 344.044 103.707 343.864 103.437L342.2 104.547C342.361 104.789 342.653 105.247 343.08 105.93L344.776 104.87ZM343.068 104.991L350.108 104.735L350.036 102.737L342.996 102.993L343.068 104.991ZM350.139 104.734C351.37 104.652 351.922 104.851 352.12 105.016L353.4 103.48C352.574 102.791 351.334 102.65 350.005 102.738L350.139 104.734ZM352.264 105.116C352.671 105.349 352.656 105.496 352.656 105.528H354.656C354.656 104.536 354.043 103.83 353.256 103.38L352.264 105.116ZM352.656 105.528C352.656 105.625 352.62 105.869 352.479 106.313C352.344 106.737 352.135 107.278 351.844 107.943L353.676 108.745C353.982 108.045 354.221 107.434 354.385 106.919C354.542 106.425 354.656 105.943 354.656 105.528H352.656ZM351.84 107.952L341.6 132.016L343.44 132.8L353.68 108.736L351.84 107.952ZM341.599 132.017C340.411 134.818 339.138 137.618 337.78 140.42L339.58 141.292C340.952 138.462 342.239 135.63 343.441 132.799L341.599 132.017ZM337.78 140.42C336.417 143.232 335.01 146.087 333.562 148.985L335.35 149.879C336.803 146.974 338.213 144.112 339.58 141.292L337.78 140.42ZM334.827 150.36C337.396 149.333 339.753 148.347 341.899 147.403L341.093 145.573C338.972 146.506 336.636 147.483 334.085 148.504L334.827 150.36ZM341.929 147.39C344.131 146.333 346.24 145.014 348.256 143.436L347.024 141.86C345.115 143.354 343.128 144.595 341.063 145.586L341.929 147.39ZM348.277 143.419C350.329 141.724 352.351 139.43 354.348 136.564L352.708 135.42C350.78 138.186 348.876 140.33 347.003 141.877L348.277 143.419ZM354.351 136.56C356.085 134.046 357.645 131.403 359.03 128.631L357.242 127.737C355.897 130.426 354.385 132.989 352.705 135.424L354.351 136.56ZM359.03 128.631C360.396 125.901 361.371 123.993 361.96 122.898L360.2 121.95C359.594 123.074 358.607 125.006 357.242 127.737L359.03 128.631ZM361.974 122.871C362.132 122.556 362.268 122.325 362.379 122.165C362.5 121.993 362.554 121.961 362.531 121.976L361.421 120.312C361.142 120.498 360.919 120.764 360.741 121.019C360.554 121.286 360.369 121.61 360.186 121.977L361.974 122.871ZM362.423 122.038C362.583 121.959 362.694 121.908 362.763 121.88C362.799 121.866 362.81 121.864 362.803 121.866C362.799 121.867 362.782 121.871 362.757 121.876C362.734 121.88 362.684 121.888 362.616 121.888V119.888C362.455 119.888 362.32 119.924 362.253 119.942C362.172 119.966 362.092 119.995 362.021 120.024C361.877 120.081 361.71 120.159 361.529 120.25L362.423 122.038ZM362.616 121.888C362.649 121.888 362.633 121.893 362.59 121.876C362.54 121.857 362.481 121.819 362.433 121.763C362.387 121.71 362.375 121.668 362.374 121.667C362.374 121.667 362.377 121.675 362.379 121.696C362.382 121.716 362.384 121.745 362.384 121.784H364.384C364.384 121.366 364.298 120.865 363.951 120.461C363.58 120.028 363.07 119.888 362.616 119.888V121.888ZM362.384 121.784C362.384 121.961 362.306 122.294 362.004 122.824L363.74 123.816C364.12 123.151 364.384 122.46 364.384 121.784H362.384ZM361.968 122.893C359.841 127.401 357.89 131.217 356.114 134.346L357.854 135.334C359.662 132.148 361.636 128.284 363.776 123.747L361.968 122.893ZM356.12 134.336C354.358 137.356 352.48 139.941 350.489 142.098L351.959 143.454C354.064 141.174 356.026 138.468 357.848 135.344L356.12 134.336ZM350.488 142.099C348.612 144.139 346.229 145.952 343.323 147.529L344.277 149.287C347.344 147.622 349.911 145.68 351.96 143.453L350.488 142.099ZM343.304 147.54C340.38 149.21 336.637 150.895 332.061 152.59L332.755 154.466C337.395 152.747 341.246 151.019 344.296 149.276L343.304 147.54ZM331.535 153.041C329.502 156.683 327.17 160.456 324.539 164.361L326.197 165.479C328.856 161.533 331.218 157.712 333.281 154.015L331.535 153.041ZM324.533 164.369C321.922 168.328 318.975 171.99 315.692 175.358L317.124 176.754C320.497 173.295 323.523 169.534 326.203 165.471L324.533 164.369ZM315.683 175.367C312.422 178.796 308.877 181.546 305.05 183.625L306.006 185.383C310.03 183.196 313.738 180.313 317.133 176.745L315.683 175.367ZM305.044 183.629C301.188 185.762 296.961 186.832 292.344 186.832V188.832C297.285 188.832 301.847 187.683 306.012 185.379L305.044 183.629ZM289.272 186.272C292.295 186.272 295.405 185.355 298.59 183.586L297.618 181.838C294.659 183.482 291.881 184.272 289.272 184.272V186.272ZM298.6 183.58C301.663 181.83 304.626 179.605 307.493 176.913L306.123 175.455C303.358 178.053 300.519 180.18 297.608 181.844L298.6 183.58ZM307.481 176.924C310.323 174.34 312.953 171.667 315.369 168.907L313.863 167.589C311.5 170.29 308.925 172.908 306.135 175.444L307.481 176.924ZM315.38 168.893C317.696 166.149 319.592 163.736 321.064 161.658L319.432 160.502C318.003 162.52 316.144 164.886 313.852 167.603L315.38 168.893ZM321.048 161.68C321.6 160.944 322.1 160.124 322.55 159.223L320.762 158.329C320.359 159.135 319.92 159.851 319.448 160.48L321.048 161.68ZM322.55 159.223C322.977 158.37 323.404 157.517 323.83 156.663L322.042 155.769C321.615 156.622 321.188 157.475 320.762 158.329L322.55 159.223ZM322.675 155.251C318.583 156.359 314.064 157.553 309.118 158.832L309.618 160.768C314.571 159.487 319.097 158.292 323.197 157.181L322.675 155.251ZM309.102 158.836C304.119 160.211 299.722 161.718 295.916 163.362L296.708 165.198C300.412 163.599 304.718 162.12 309.634 160.764L309.102 158.836ZM295.927 163.357C291.693 165.121 288.339 167.612 285.912 170.848L287.512 172.048C289.693 169.14 292.739 166.852 296.697 165.203L295.927 163.357ZM285.904 170.859C283.542 174.095 282.256 177.118 282.256 179.896H284.256C284.256 177.724 285.274 175.116 287.52 172.037L285.904 170.859ZM282.256 179.896C282.256 181.746 282.851 183.313 284.116 184.473L285.468 182.999C284.685 182.282 284.256 181.288 284.256 179.896H282.256ZM284.055 184.412C285.258 185.724 287.078 186.272 289.272 186.272V184.272C287.37 184.272 286.204 183.796 285.529 183.06L284.055 184.412Z" fill="black" mask="url(#path-1-outside-1_0_1)"/>
<g clip-path="url(#clip0_0_1)">
<path d="M107.016 20.3268C107.016 -37.7598 143.312 44.5799 128.819 69.7307C143.338 44.5799 232.808 34.8454 182.494 63.8951C232.808 34.8454 179.647 107.502 150.609 107.502C179.647 107.502 232.808 180.119 182.494 151.108C232.808 180.158 143.338 170.424 128.819 145.273C143.338 170.424 107.016 252.764 107.016 194.677C107.016 252.764 70.7067 170.424 85.2123 145.273C70.6938 170.424 -18.7768 180.158 31.5376 151.108C-18.7768 180.158 34.3848 107.502 63.4345 107.502C34.3848 107.502 -18.7768 34.8838 31.5376 63.8951C-18.7768 34.8454 70.6938 44.5799 85.2123 69.7307C70.7067 44.5542 107.016 -37.7598 107.016 20.3268Z" fill="black"/>
</g>
<defs>
<clipPath id="clip0_0_1">
<rect width="215" height="215" fill="white"/>
</clipPath>
</defs>
</svg>
